<svg width="59" height="58" viewBox="0 0 59 58" fill="none" xmlns="http://www.w3.org/2000/svg">
<rect x="0.508057" y="0.41684" width="57.8387" height="57.1663" rx="28.5832" fill="#1565D8"/>
<path fill-rule="evenodd" clip-rule="evenodd" d="M18.0723 42.8281C15.421 43.9831 12.5164 44.3424 9.70371 43.8998C7.90598 43.617 7.06987 41.6644 7.7357 39.9707C8.40153 38.277 10.343 37.5166 12.1626 37.4921C13.2806 37.4771 14.3954 37.2414 15.4404 36.7862C17.5054 35.8866 19.1285 34.2036 19.9526 32.1073C20.7767 30.011 20.7343 27.6732 19.8347 25.6082C19.3795 24.5633 18.7237 23.6315 17.9152 22.8591C16.5994 21.602 15.6956 19.723 16.3614 18.0293C17.0272 16.3356 18.9692 15.4752 20.4783 16.4923C21.6957 17.3129 22.7859 18.3062 23.7147 19.4395C23.9477 19.7238 24.3901 19.7239 24.6232 19.4395C26.7698 16.8202 29.7354 14.9994 33.0425 14.2704C36.3497 13.5415 39.8059 13.9467 42.8548 15.4208C45.9037 16.8949 48.3678 19.3522 49.8503 22.397C50.7103 24.1633 51.211 26.0677 51.3393 28.0016C51.494 30.3325 49.1773 31.8036 46.8946 31.307C44.6119 30.8104 43.2872 28.4013 42.3252 26.2725C42.2991 26.2148 42.2722 26.1574 42.2444 26.1004C41.5934 24.7633 40.5113 23.6842 39.1724 23.0369C37.8336 22.3895 36.3158 22.2116 34.8635 22.5317C33.4112 22.8518 32.1089 23.6514 31.1663 24.8016C30.2236 25.9519 29.6955 27.3859 29.6669 28.8728C29.6384 30.3596 30.111 31.8129 31.0088 32.9985C31.9065 34.1841 33.1772 35.0331 34.6161 35.4087C34.6775 35.4248 34.739 35.4399 34.8007 35.4541C37.077 35.9791 39.6995 36.8048 40.6348 38.9454C41.5701 41.0861 40.5829 43.6466 38.267 43.9529C36.3456 44.207 34.38 44.0902 32.4791 43.594C29.2024 42.7385 26.3089 40.8052 24.2645 38.1053C24.2166 38.0421 24.1212 38.0421 24.0733 38.1053C22.5247 40.1503 20.4657 41.7855 18.0723 42.8281Z" fill="white"/>
</svg>
