<svg width="41" height="41" viewBox="0 0 41 41" fill="none" xmlns="http://www.w3.org/2000/svg">
<path d="M30.5283 37.3612C29.9987 37.3612 29.4691 37.2245 28.9908 36.9341L22.1404 32.8683C21.4229 32.8512 20.7054 32.8 20.022 32.6975C19.5608 32.6291 19.1679 32.3216 18.997 31.8774C18.8262 31.4332 18.9116 30.9549 19.2191 30.5962C20.3466 29.2807 20.9275 27.7091 20.9275 26.0349C20.9275 21.9008 17.2887 18.5353 12.8129 18.5353C11.1387 18.5353 9.53286 18.9966 8.18328 19.885C7.80745 20.1241 7.3462 20.1583 6.9362 19.9704C6.54329 19.7825 6.25288 19.4066 6.20163 18.9624C6.15038 18.4841 6.11621 18.0058 6.11621 17.5104C6.11621 9.03703 13.462 2.15247 22.482 2.15247C31.502 2.15247 38.8479 9.03703 38.8479 17.5104C38.8479 22.157 36.6954 26.4279 32.9029 29.3491L33.4837 33.9958C33.6204 35.1575 33.1079 36.2508 32.1341 36.8829C31.6558 37.1904 31.092 37.3612 30.5283 37.3612ZM22.4649 30.2887C22.7041 30.2716 22.9433 30.34 23.1483 30.4767L30.3062 34.7304C30.4941 34.85 30.6479 34.7987 30.7504 34.7304C30.8358 34.6791 30.9725 34.5425 30.9383 34.3033L30.272 28.9049C30.2208 28.4266 30.4258 27.9654 30.8016 27.6921C34.2866 25.2492 36.2854 21.5249 36.2854 17.4762C36.2854 10.4207 30.1012 4.68077 22.482 4.68077C15.1533 4.68077 9.13995 10.0108 8.69579 16.7075C9.97704 16.2121 11.3608 15.9387 12.7958 15.9387C18.6896 15.9387 23.4729 20.4487 23.4729 26.0007C23.49 27.5041 23.1312 28.9562 22.4649 30.2887Z" fill="#292D32"/>
<path d="M7.82402 38.8646C7.37986 38.8646 6.95276 38.7451 6.55985 38.4889C5.7911 37.9934 5.38111 37.1393 5.48361 36.2338L5.82528 33.6029C3.51903 31.7238 2.15234 28.9392 2.15234 26.0179C2.15234 22.6867 3.89486 19.5775 6.81611 17.7155C8.5757 16.5709 10.6598 15.9559 12.8294 15.9559C18.7232 15.9559 23.5065 20.4659 23.5065 26.0179C23.5065 28.2729 22.6865 30.4938 21.1832 32.2534C19.2528 34.5938 16.3657 35.9604 13.1882 36.0629L9.01985 38.5401C8.64402 38.7621 8.23402 38.8646 7.82402 38.8646ZM12.8124 18.5184C11.1382 18.5184 9.53234 18.9796 8.18276 19.868C5.99609 21.2688 4.69777 23.5579 4.69777 26.0179C4.69777 28.3925 5.85944 30.5622 7.90944 31.963C8.30236 32.2363 8.50735 32.6975 8.4561 33.1759L8.08026 36.0971L12.1632 33.6713C12.3682 33.5518 12.5903 33.4833 12.8124 33.4833C15.3236 33.4833 17.6982 32.4072 19.2015 30.5793C20.329 29.2468 20.9269 27.675 20.9269 26.0008C20.9269 21.8838 17.2882 18.5184 12.8124 18.5184Z" fill="#292D32"/>
</svg>
