<svg width="41" height="41" viewBox="0 0 41 41" fill="none" xmlns="http://www.w3.org/2000/svg">
<path d="M24.2926 36.9512C22.2768 36.9512 19.4238 35.5333 17.1688 28.7512L15.9388 25.0612L12.2488 23.8312C5.48383 21.5762 4.06592 18.7233 4.06592 16.7075C4.06592 14.7087 5.48383 11.8387 12.2488 9.56664L26.7526 4.73205C30.3742 3.51914 33.398 3.87789 35.2601 5.72289C37.1222 7.56789 37.4809 10.6087 36.268 14.2304L31.4334 28.7341C29.1613 35.5333 26.3084 36.9512 24.2926 36.9512ZM13.0518 12.0096C8.30258 13.5983 6.61133 15.4775 6.61133 16.7075C6.61133 17.9375 8.30258 19.8166 13.0518 21.3883L17.3568 22.8233C17.7326 22.9429 18.0401 23.2504 18.1597 23.6262L19.5947 27.9312C21.1663 32.6804 23.0626 34.3716 24.2926 34.3716C25.5226 34.3716 27.4017 32.6804 28.9905 27.9312L33.8251 13.4275C34.6963 10.7966 34.5426 8.64414 33.4322 7.53372C32.3217 6.4233 30.1692 6.28664 27.5555 7.15789L13.0518 12.0096Z" fill="#292D32"/>
<path d="M17.2711 24.6C16.9465 24.6 16.622 24.4804 16.3657 24.2241C15.8703 23.7287 15.8703 22.9087 16.3657 22.4133L22.4815 16.2804C22.977 15.785 23.797 15.785 24.2924 16.2804C24.7878 16.7758 24.7878 17.5958 24.2924 18.0912L18.1765 24.2241C17.9374 24.4804 17.5957 24.6 17.2711 24.6Z" fill="#292D32"/>
</svg>
